<?xml version="1.0" encoding="utf-8"?>
<!-- Generator: Adobe Illustrator 17.0.0, SVG Export Plug-In . SVG Version: 6.00 Build 0)  -->
<!DOCTYPE svg PUBLIC "-//W3C//DTD SVG 1.1//EN" "http://www.w3.org/Graphics/SVG/1.1/DTD/svg11.dtd">
<svg version="1.1" id="图层_1" xmlns="http://www.w3.org/2000/svg" xmlns:xlink="http://www.w3.org/1999/xlink" x="0px" y="0px"
	 width="1280px" height="2900px" viewBox="0 0 1280 2900" enable-background="new 0 0 1280 2900" xml:space="preserve">
<g opacity="0.7">
	<rect x="-12" y="-59" fill="#C4A07C" width="1304" height="2975"/>
	<g opacity="0.8">
		<defs>
			<filter id="Adobe_OpacityMaskFilter" filterUnits="userSpaceOnUse" x="-510.18" y="-32.715" width="1675.072" height="1149.551">
				<feColorMatrix  type="matrix" values="1 0 0 0 0  0 1 0 0 0  0 0 1 0 0  0 0 0 1 0"/>
			</filter>
		</defs>
		<mask maskUnits="userSpaceOnUse" x="-510.18" y="-32.715" width="1675.072" height="1149.551" id="SVGID_1_">
			<g filter="url(#Adobe_OpacityMaskFilter)">
				
					<image overflow="visible" enable-background="new    " width="1680" height="1154" xlink:href="A9BE0A0D.jpeg"  transform="matrix(1 0 0 1 -513 -35)">
				</image>
			</g>
		</mask>
		<g mask="url(#SVGID_1_)">
			
				<rect x="68.94" y="-261.723" transform="matrix(0.4239 0.9057 -0.9057 0.4239 679.5367 15.7908)" fill="#332B2B" width="516.831" height="1607.567"/>
		</g>
	</g>
	
		<rect x="-453.138" y="306.937" transform="matrix(0.9057 -0.4239 0.4239 0.9057 -198.9181 189.8844)" fill="#F1C03C" width="1561.006" height="470.27"/>
	<g>
		<defs>
			
				<filter id="Adobe_OpacityMaskFilter_1_" filterUnits="userSpaceOnUse" x="-389.885" y="820.648" width="1873.251" height="1158.033">
				<feColorMatrix  type="matrix" values="1 0 0 0 0  0 1 0 0 0  0 0 1 0 0  0 0 0 1 0"/>
			</filter>
		</defs>
		<mask maskUnits="userSpaceOnUse" x="-389.885" y="820.648" width="1873.251" height="1158.033" id="SVGID_2_">
			<g filter="url(#Adobe_OpacityMaskFilter_1_)">
				
					<image overflow="visible" enable-background="new    " width="1878" height="1163" xlink:href="A9BE0A0F.jpeg"  transform="matrix(1 0 0 1 -392 818)">
				</image>
			</g>
		</mask>
		<g mask="url(#SVGID_2_)">
			<polygon fill="#4C3A2D" points="1334.687,820.648 1483.366,1163.3 -237.345,1978.681 -389.885,1627.779 			"/>
		</g>
	</g>
	
		<rect x="-340.943" y="1293.248" transform="matrix(0.9057 -0.4239 0.4239 0.9057 -570.407 388.3889)" fill="#64C2C7" width="1857.527" height="366.225"/>
	<g opacity="0.8">
		<defs>
			
				<filter id="Adobe_OpacityMaskFilter_2_" filterUnits="userSpaceOnUse" x="-464.334" y="1303.922" width="2144.549" height="1557.85">
				<feColorMatrix  type="matrix" values="1 0 0 0 0  0 1 0 0 0  0 0 1 0 0  0 0 0 1 0"/>
			</filter>
		</defs>
		<mask maskUnits="userSpaceOnUse" x="-464.334" y="1303.922" width="2144.549" height="1557.85" id="SVGID_3_">
			<g filter="url(#Adobe_OpacityMaskFilter_2_)">
				
					<image overflow="visible" enable-background="new    " width="2150" height="1563" xlink:href="A9BE0A0D.jpeg"  transform="matrix(1 0 0 1 -467 1301)">
				</image>
			</g>
		</mask>
		<g mask="url(#SVGID_3_)">
			
				<rect x="216.225" y="1082.275" transform="matrix(0.4239 0.9057 -0.9057 0.4239 2236.6824 649.3054)" fill="#444115" width="783.43" height="2001.144"/>
		</g>
	</g>
	
		<rect x="-369.33" y="1707.474" transform="matrix(0.9057 -0.4239 0.4239 0.9057 -822.6587 453.4599)" fill="#DBD344" width="1954.583" height="736.869"/>
	<g opacity="0.8">
		<defs>
			<filter id="Adobe_OpacityMaskFilter_3_" filterUnits="userSpaceOnUse" x="-279" y="1461.579" width="1716.658" height="842.757">
				<feColorMatrix  type="matrix" values="1 0 0 0 0  0 1 0 0 0  0 0 1 0 0  0 0 0 1 0"/>
			</filter>
		</defs>
		<mask maskUnits="userSpaceOnUse" x="-279" y="1461.579" width="1716.658" height="842.757" id="SVGID_4_">
			<g filter="url(#Adobe_OpacityMaskFilter_3_)">
				
					<image overflow="visible" enable-background="new    " width="1721" height="848" xlink:href="A9BE0A0B.jpeg"  transform="matrix(1 0 0 1 -281 1459)">
				</image>
			</g>
		</mask>
		<g mask="url(#SVGID_4_)">
			<polygon fill="#162F38" points="1424.711,1461.579 1437.658,1489.481 -279,2304.336 -279,2258.841 			"/>
		</g>
	</g>
	
		<rect x="-341.314" y="1868.365" transform="matrix(0.9057 -0.4239 0.4239 0.9057 -745.9479 427.271)" fill="#59A3BD" width="1857.527" height="44.038"/>
	<g>
		<defs>
			<filter id="Adobe_OpacityMaskFilter_4_" filterUnits="userSpaceOnUse" x="-840" y="-241.58" width="1716.641" height="842.756">
				<feColorMatrix  type="matrix" values="1 0 0 0 0  0 1 0 0 0  0 0 1 0 0  0 0 0 1 0"/>
			</filter>
		</defs>
		<mask maskUnits="userSpaceOnUse" x="-840" y="-241.58" width="1716.641" height="842.756" id="SVGID_5_">
			<g filter="url(#Adobe_OpacityMaskFilter_4_)">
				
					<image overflow="visible" enable-background="new    " width="1721" height="848" xlink:href="A9BE0A15.jpeg"  transform="matrix(1 0 0 1 -842 -244)">
				</image>
			</g>
		</mask>
		<g mask="url(#SVGID_5_)">
			<polygon fill="#3D2D18" points="863.677,-241.58 876.641,-213.679 -840,601.176 -840,555.682 			"/>
		</g>
	</g>
	
		<rect x="-902.375" y="164.176" transform="matrix(0.9057 -0.4239 0.4239 0.9057 -76.4404 28.7431)" fill="#50BA66" width="1857.527" height="44.038"/>
	<circle fill="#FF934A" cx="-57.152" cy="2418.72" r="408.346"/>
	<g opacity="0.7">
		<defs>
			
				<filter id="Adobe_OpacityMaskFilter_5_" filterUnits="userSpaceOnUse" x="-180.389" y="1828.689" width="1899.528" height="1181.013">
				<feColorMatrix  type="matrix" values="1 0 0 0 0  0 1 0 0 0  0 0 1 0 0  0 0 0 1 0"/>
			</filter>
		</defs>
		<mask maskUnits="userSpaceOnUse" x="-180.389" y="1828.689" width="1899.528" height="1181.013" id="SVGID_6_">
			<g filter="url(#Adobe_OpacityMaskFilter_5_)">
				
					<image overflow="visible" enable-background="new    " width="1905" height="1186" xlink:href="A9BE0A17.jpeg"  transform="matrix(1 0 0 1 -183 1826)">
				</image>
			</g>
		</mask>
		<g mask="url(#SVGID_6_)">
			
				<rect x="562.982" y="1467.152" transform="matrix(0.4239 0.9057 -0.9057 0.4239 2634.3179 696.8614)" fill="#4C2E19" width="412.787" height="1904.088"/>
		</g>
	</g>
	
		<rect x="-159.359" y="2229.153" transform="matrix(0.9057 -0.4239 0.4239 0.9057 -950.0186 553.6119)" fill="#F5DEC4" width="1857.527" height="366.225"/>
	
		<rect x="-14.316" y="2571.814" transform="matrix(0.9057 -0.4239 0.4239 0.9057 -1112.566 654.2952)" fill="#CBD6CD" width="1857.527" height="512.338"/>
	<g>
		<defs>
			
				<filter id="Adobe_OpacityMaskFilter_6_" filterUnits="userSpaceOnUse" x="151.445" y="-453.61" width="1816.992" height="1816.99">
				<feColorMatrix  type="matrix" values="1 0 0 0 0  0 1 0 0 0  0 0 1 0 0  0 0 0 1 0"/>
			</filter>
		</defs>
		<mask maskUnits="userSpaceOnUse" x="151.445" y="-453.61" width="1816.992" height="1816.99" id="SVGID_7_">
			<g filter="url(#Adobe_OpacityMaskFilter_6_)">
				
					<image overflow="visible" enable-background="new    " width="1822" height="1822" xlink:href="A9BE0A15.jpeg"  transform="matrix(1 0 0 1 149 -456)">
				</image>
			</g>
		</mask>
		<g mask="url(#SVGID_7_)">
			<path fill="#4C3A2D" d="M151.445,454.885c0-122.605,24.033-241.592,71.432-353.657C268.64-6.965,334.134-104.114,417.538-187.518
				s180.552-148.898,288.746-194.66c112.064-47.398,231.051-71.432,353.657-71.432s241.591,24.033,353.656,71.432
				c108.195,45.763,205.342,111.256,288.748,194.66c83.404,83.404,148.898,180.553,194.659,288.746
				c47.399,112.064,71.433,231.051,71.433,353.657s-24.033,241.592-71.433,353.657c-45.761,108.194-111.255,205.342-194.659,288.746
				c-83.405,83.404-180.553,148.897-288.748,194.66c-112.064,47.398-231.05,71.432-353.656,71.432s-241.592-24.033-353.657-71.432
				c-108.195-45.763-205.342-111.256-288.746-194.66S268.64,916.735,222.877,808.541
				C175.478,696.477,151.445,577.49,151.445,454.885z"/>
		</g>
	</g>
	<circle fill="#CBD6CD" cx="1059.94" cy="454.885" r="815.372"/>
	<g>
		<g>
			<defs>
				<circle id="SVGID_8_" cx="593.22" cy="2601.616" r="815.365"/>
			</defs>
			<clipPath id="SVGID_9_">
				<use xlink:href="#SVGID_8_"  overflow="visible"/>
			</clipPath>
			
				<rect x="-340.943" y="1293.248" transform="matrix(0.9057 -0.4239 0.4239 0.9057 -570.407 388.3889)" clip-path="url(#SVGID_9_)" fill="#396B3A" width="1857.527" height="366.225"/>
		</g>
	</g>
	<g>
		<g>
			<g>
				<g>
					<defs>
						<rect id="SVGID_11_" x="25" y="461" width="1304" height="2235"/>
					</defs>
					<clipPath id="SVGID_12_">
						<use xlink:href="#SVGID_11_"  overflow="visible"/>
					</clipPath>
				</g>
			</g>
			<g>
				<defs>
					
						<filter id="Adobe_OpacityMaskFilter_7_" filterUnits="userSpaceOnUse" x="-474.546" y="-354.487" width="2356.53" height="3050.487">
						<feColorMatrix  type="matrix" values="1 0 0 0 0  0 1 0 0 0  0 0 1 0 0  0 0 0 1 0"/>
					</filter>
				</defs>
				<mask maskUnits="userSpaceOnUse" x="-474.546" y="-354.487" width="2356.53" height="3050.487" id="SVGID_10_">
					<g filter="url(#Adobe_OpacityMaskFilter_7_)">
						
							<image overflow="visible" enable-background="new    " width="2361" height="3055" xlink:href="A9BE0A1B.jpeg"  transform="matrix(1 0 0 1 -477 -357)">
						</image>
					</g>
				</mask>
				<g mask="url(#SVGID_10_)">
					<defs>
						<rect id="SVGID_13_" x="25" y="461" width="1304" height="2235"/>
					</defs>
					<clipPath id="SVGID_14_">
						<use xlink:href="#SVGID_13_"  overflow="visible"/>
					</clipPath>
					<g clip-path="url(#SVGID_14_)">
						<g>
							<defs>
								
									<rect id="SVGID_15_" x="-448.467" y="312.937" transform="matrix(0.9057 -0.4239 0.4239 0.9057 -201.021 192.4306)" width="1561.006" height="470.27"/>
							</defs>
							<clipPath id="SVGID_16_">
								<use xlink:href="#SVGID_15_"  overflow="visible"/>
							</clipPath>
							<circle clip-path="url(#SVGID_16_)" fill="#2C4441" cx="1066.612" cy="460.885" r="815.372"/>
						</g>
					</g>
					<g clip-path="url(#SVGID_14_)">
						<g>
							<defs>
								<rect id="SVGID_17_" x="25" y="461" width="1304" height="2235"/>
							</defs>
							<clipPath id="SVGID_18_">
								<use xlink:href="#SVGID_17_"  overflow="visible"/>
							</clipPath>
						</g>
					</g>
				</g>
			</g>
			<rect x="18" y="457" fill="none" width="1304" height="2233"/>
			<g opacity="0.5">
				<defs>
					
						<filter id="Adobe_OpacityMaskFilter_8_" filterUnits="userSpaceOnUse" x="-224.468" y="2472.632" width="1710.472" height="1710.473">
						<feColorMatrix  type="matrix" values="1 0 0 0 0  0 1 0 0 0  0 0 1 0 0  0 0 0 1 0"/>
					</filter>
				</defs>
				<mask maskUnits="userSpaceOnUse" x="-224.468" y="2472.632" width="1710.472" height="1710.473" id="SVGID_23_">
					<g filter="url(#Adobe_OpacityMaskFilter_8_)">
						
							<image overflow="visible" enable-background="new    " width="1716" height="1716" xlink:href="A9BE0A1D.jpeg"  transform="matrix(1 0 0 1 -227 2470)">
						</image>
					</g>
				</mask>
				<g mask="url(#SVGID_23_)">
					<path fill="#333020" d="M630.768,4183.105c-115.45,0-227.454-22.614-332.901-67.215
						c-101.843-43.076-193.303-104.739-271.842-183.278c-78.538-78.539-140.202-170-183.278-271.843
						c-44.601-105.447-67.215-217.452-67.215-332.901s22.614-227.454,67.215-332.901c43.076-101.843,104.74-193.304,183.278-271.842
						c78.539-78.539,170-140.202,271.842-183.278c105.448-44.601,217.452-67.215,332.901-67.215s227.454,22.614,332.901,67.215
						c101.843,43.076,193.304,104.739,271.842,183.278c78.539,78.538,140.202,169.999,183.278,271.842
						c44.601,105.447,67.215,217.452,67.215,332.901s-22.614,227.454-67.215,332.901
						c-43.076,101.843-104.739,193.304-183.278,271.843c-78.538,78.539-169.999,140.202-271.842,183.278
						C858.222,4160.491,746.217,4183.105,630.768,4183.105z"/>
				</g>
			</g>
			<circle fill="#F2E898" cx="630.768" cy="3327.868" r="840.237"/>
			<rect x="-12" y="-59" display="none" fill="none" width="1304" height="2975"/>
			<g>
				<g>
					<defs>
						<rect id="SVGID_19_" x="18" y="457" width="1304" height="2235"/>
					</defs>
					<clipPath id="SVGID_20_">
						<use xlink:href="#SVGID_19_"  overflow="visible"/>
					</clipPath>
					<g clip-path="url(#SVGID_20_)">
						<g>
							<defs>
								
									<rect id="SVGID_21_" x="-455.467" y="308.937" transform="matrix(0.9057 -0.4239 0.4239 0.9057 -199.9854 189.086)" width="1561.006" height="470.27"/>
							</defs>
							<clipPath id="SVGID_22_">
								<use xlink:href="#SVGID_21_"  overflow="visible"/>
							</clipPath>
							<circle clip-path="url(#SVGID_22_)" fill="#81C7C1" cx="1059.612" cy="456.885" r="815.372"/>
						</g>
					</g>
				</g>
			</g>
		</g>
	</g>
</g>
</svg>
